PathFileType	4	(X/Y/Z)	C:/Users/beibeiliu/ov580/test_trc/User1\sequence.8_training_dense_right.trc
DataRate	CameraRate	NumFrames	NumMarkers	Units	OrigDataRate	OrigDataStartFrame	OrigNumFrames
120	120	19	19	mm	120	37	289
Frame#	Time	ThumbCMC			ThumbMCP			ThumbIP			ThumbTip			IndexMCP			IndexPIP			IndexTip			MiddleMCP			MiddlePIP			MiddleTip			RingMCP			RingPIP			RingTip			PinkyMCP			PinkyPIP			PinkyTip			BackHand1			BackHand2			BackHand3	
		X0	Y0	Z0	X1	Y1	Z1	X2	Y2	Z2	X3	Y3	Z3	X4	Y4	Z4	X5	Y5	Z5	X6	Y6	Z6	X7	Y7	Z7	X8	Y8	Z8	X9	Y9	Z9	X10	Y10	Z10	X11	Y11	Z11	X12	Y12	Z12	X13	Y13	Z13	X14	Y14	Z14	X15	Y15	Z15	X16	Y16	Z16	X17	Y17	Z17	X18	Y18	Z18	
36	0.3	169.378	111.225	24.7115	148.766	124.519	4.47052	139.339	134.853	-24.1276	128.655	144.319	-37.1818	153.305	87.3215	-51.6298	122.772	86.4767	-40.4139	133.617	87.7131	-6.98395	148.994	67.6596	-49.8759	121.385	68.25	-32.0289	140.458	77.9335	3.7513	146.71	44.9286	-37.9426	121.334	54.9113	-15.9328	143.054	60.8952	8.72024	147.842	26.3693	-22.937	124.984	41.2986	-4.1149	143.156	53.9959	14.7881	192.719	48.5757	4.35771	198.484	52.5675	36.7425	197.036	82.9915	19.4223	
37	0.308333	171.635	107.166	27.8928	154.072	125.475	3.98421	145.71	135.662	-24.9965	137.03	146.105	-38.4247	154.414	85.438	-49.8493	123.701	83.7723	-39.6995	134.488	92.6863	-5.78439	146.701	62.6673	-49.1483	119.001	67.6156	-29.3364	140.927	73.5894	3.93606	141.665	42.7769	-37.5147	117.982	57.0315	-14.0887	138.928	62.2479	8.97355	137.917	25.7121	-20.8157	120.993	43.0918	-1.65691	145.379	53.0945	17.3967	189.982	40.9177	5.84745	195.179	42.6315	37.5678	196.711	76.1008	13.6452	
38	0.316667	175.558	104.582	28.0878	160.288	122.272	4.05253	154.58	134.297	-23.1385	147.399	147.079	-33.6779	150.382	83.092	-50.526	122.73	87.7988	-36.6449	138.943	90.2135	-4.65605	144.433	57.8078	-47.2977	117.712	71.8038	-30.3503	140.178	76.7701	4.35003	134.16	44.9912	-36.456	113.368	56.1744	-15.8399	136.848	61.9959	9.85292	133.661	25.8596	-19.5352	115.055	41.987	-3.18419	139.161	51.5803	17.2235	182.949	36.1561	6.69704	190.264	40.3173	38.0632	196.8	68.6808	15.1285	
39	0.325	177.612	104.161	27.6967	164.186	118.584	0.73557	159.716	129.368	-21.8915	155.517	146.016	-31.4179	153.671	81.583	-47.3568	121.444	88.1979	-37.4453	137.165	90.6936	-3.51252	139.843	60.0392	-47.7329	114.327	71.6765	-25.7184	139.052	71.9708	5.26737	127.037	41.2774	-34.1441	110.782	59.0016	-12.7654	136.033	59.759	11.3755	127.8	27.7458	-19.3657	111.291	44.8017	-0.355145	137.777	47.9378	19.8523	176.973	28.5359	7.32087	183.695	33.1322	43.0222	194.571	64.4493	15.4376	
40	0.333333	177.024	98.8625	26.3272	164.271	115.125	5.30179	163.023	129.765	-16.94	162.42	144.166	-30.4187	149.174	78.285	-47.2653	118.393	82.6942	-33.6315	138.261	85.31	-0.709596	135.649	52.601	-44.4223	111.561	69.5184	-27.603	134.971	70.632	6.64835	125.351	36.0132	-30.3434	106.762	56.9034	-10.9274	128.88	55.7079	14.3938	119.615	21.5714	-15.7434	105.748	42.3802	2.63279	131.258	45.035	23.1034	172.549	27.1998	8.16845	181.05	29.4813	43.5358	187.87	57.9388	18.5397	
41	0.341667	174.797	93.9866	28.9284	166.093	114.223	9.39567	166.216	125.529	-16.7244	168.822	144.385	-29.1232	145.501	77.2826	-46.4687	115.238	82.9335	-31.8462	131.942	85.324	-1.3533	129.586	54.361	-43.8462	106.781	66.8575	-22.3796	132.74	65.9071	8.85562	117.674	36.9557	-29.3983	102.366	56.5459	-10.8454	128.418	52.889	16.0654	116.279	19.1996	-13.4737	104.59	44.0157	3.57411	125.779	43.8337	24.0995	168.76	22.7424	11.8354	173.932	27.3515	42.5777	186.039	57.9493	19.8839	
42	0.35	173.719	90.5181	28.8572	166.327	110.666	9.97428	170.207	125.737	-15.43	175.294	143.314	-26.5848	138.284	73.3057	-45.5351	112.961	80.53	-31.547	129.93	82.0329	-0.593361	124.576	51.3128	-42.0097	102.88	65.9334	-23.3385	127.63	67.3359	10.0318	117.345	38.8372	-28.6031	99.3963	56.9443	-7.25558	122.584	57.0553	15.6466	110.838	19.2843	-12.4298	96.7005	42.0857	3.14684	124.097	43.9168	25.469	164.674	21.6162	12.4028	170.643	24.2482	43.3304	182.369	54.6956	17.1447	
43	0.358333	173.964	91.6724	30.0436	166.27	107.99	9.75564	170.991	122.808	-11.9451	175.757	138.252	-22.8358	139.417	71.0844	-43.2405	110.104	85.4176	-26.9617	128.174	83.6678	1.14854	126.5	51.2965	-39.4262	102.092	71.3881	-22.2737	123.694	70.1656	9.77061	114.214	37.1611	-28.2545	97.7186	58.8078	-4.76991	119.306	52.4572	17.8496	105.459	20.9387	-12.6276	96.4164	44.3514	3.62398	120.585	43.4082	25.2188	160.98	21.4773	13.0358	168.99	23.48	43.8975	178.601	50.687	22.1149	
44	0.366667	170.111	87.3693	28.6257	166.485	106.922	11.54	172.004	121.767	-10.0923	178.861	138.412	-21.6187	133.844	75.2599	-44.4593	109.002	85.8677	-28.9327	128.522	80.2714	2.98004	121.879	54.5429	-39.6125	99.0177	69.8408	-19.0817	123.725	69.4333	11.2991	107.874	40.2056	-26.8337	95.4667	60.4913	-3.43069	118.29	53.1886	17.8693	106.034	25.4753	-11.1957	94.0862	45.0462	7.30948	120.638	45.0552	22.9418	157.99	19.3093	9.4705	164.795	23.9571	48.0425	177.688	52.2984	22.3839	
45	0.375	170.45	87.3662	30.6311	170.079	107.76	9.97433	178.337	122.491	-10.3117	186.023	138.512	-20.2762	136.084	72.3208	-42.3267	109.056	87.838	-28.0667	129.731	84.2254	3.09014	121.704	56.0917	-39.4633	99.0283	74.1069	-21.9061	122.81	69.3852	11.8783	110.913	40.6199	-25.9744	94.5901	61.8228	-2.96847	118.694	55.6179	19.0156	99.83	25.6195	-10.7486	93.1138	46.8686	4.44391	117.578	44.1856	28.8372	155.849	22.7979	12.033	163.443	20.9262	49.3993	177.448	53.5982	19.4954	
46	0.383333	173.492	89.1296	31.5838	172.48	105.455	11.9523	182.692	121.006	-11.6738	187.629	133.016	-18.122	136.677	77.3935	-41.5452	108.587	86.8264	-27.0522	130.804	82.7631	3.90048	120.82	55.9229	-38.1451	99.4158	76.2949	-19.0336	123.088	70.1937	11.5754	109.759	42.5108	-26.2426	94.4894	64.2342	-3.05832	119.402	56.4295	18.3202	96.7003	26.8356	-10.9105	91.6311	48.8055	10.5233	118.624	46.0132	24.1203	150.176	18.6946	10.178	161.103	20.1443	45.0193	174.814	49.2165	21.293	
47	0.391667	172.763	84.9992	36.2301	177.499	105.846	13.5845	187.077	118.084	-6.8418	193.775	128.632	-19.7881	139.361	78.5015	-40.7525	109.237	88.1789	-25.6423	129.399	88.7949	2.93489	118.2	56.5106	-37.9393	100.467	78.8086	-16.1289	127.598	73.2674	12.1087	108.365	43.2576	-25.743	93.4977	64.6867	-0.928892	118.326	57.9553	17.5589	98.1477	29.6883	-10.879	93.7839	52.6864	4.73331	118.59	48.639	23.2564	150.892	18.2358	13.7897	161.493	22.6769	49.1157	175.661	49.724	25.4889	
48	0.4	176.459	85.8878	36.2367	180.879	104.626	16.5126	191.42	115.166	-7.85818	198.386	126.71	-14.6008	135.688	79.6848	-42.2295	114.083	94.9903	-28.8474	130.128	87.4621	3.26596	119.239	58.8908	-38.0521	103.01	82.0852	-19.3309	128.19	74.974	11.3688	108.835	48.3377	-27.4738	94.232	68.5333	-6.26037	121.585	55.883	17.2398	98.8798	30.88	-10.7857	89.2887	54.6666	5.99633	117.589	50.0256	22.0594	149.017	19.7433	15.7882	158.58	19.8698	47.1518	176.059	48.42	24.7373	
49	0.408333	177.035	82.746	35.8135	184.794	100.922	12.3316	195.457	112.53	-4.04616	205.996	123.096	-16.1621	141.09	78.9189	-39.5466	117.223	95.9793	-22.6727	138.004	88.0229	4.75231	126.706	61.9668	-37.8533	103.703	83.2803	-16.1831	127.556	76.3174	10.8968	106.11	49.7232	-26.2411	97.4513	74.1108	-7.19253	122.097	60.1499	17.3596	101.26	35.3627	-11.7117	90.8869	58.3268	5.18248	117.347	53.2745	22.5805	147.833	20.4425	13.7983	157.04	23.4722	47.2655	176.69	46.3226	25.8274	
50	0.416667	181.747	84.5979	35.1102	188.909	101.835	16.2851	199.554	109.359	-2.79583	213.834	119.525	-14.3655	144.718	83.5812	-41.0523	121.3	100.825	-24.7811	138.656	91.7579	4.84706	125.037	67.4591	-39.428	109.247	89.009	-21.4682	127.698	75.7306	11.9488	107.453	52.4368	-26.728	98.0597	76.4508	-7.20215	121.16	61.8629	17.672	99.9865	40.5267	-11.9487	96.5296	64.9048	2.1889	115.477	52.9183	24.825	148.644	23.8576	11.2871	157.054	22.8778	46.753	175.114	46.2228	27.7184	
51	0.425	185.119	84.8549	40.3318	191.954	96.9594	15.307	202.963	105.142	-2.67513	219.019	114.413	-13.4571	149.874	81.6324	-39.2989	126.155	100.313	-26.5578	144.121	95.2493	5.22958	131.033	66.2945	-37.5444	113.024	92.2403	-21.9834	135.288	82.1616	12.471	110.109	54.7811	-26.3208	104.458	83.0197	-5.02493	123.365	65.2594	18.1224	101.005	45.9606	-13.3863	94.0793	67.3769	2.34863	120.351	55.331	24.7763	148.095	24.396	12.008	152.986	21.4303	49.4882	178.567	46.1128	27.5086	
52	0.433333	188.762	82.218	40.7656	198.146	97.0087	18.895	209.108	101.419	-3.01263	225.337	111.075	-8.57489	152.088	85.6079	-38.7941	133.597	106.676	-23.7298	149.532	91.4567	7.33761	132.428	70.4402	-38.514	120.025	96.4634	-21.3583	136.031	81.3205	13.0014	115.501	62.7828	-27.5991	107.612	85.313	-6.19996	126.629	68.4081	18.5697	105.35	48.9152	-13.8274	100.991	73.0013	1.71684	121.766	60.7085	23.9421	147.494	24.0351	14.2222	155.783	26.1109	52.2746	177.236	45.4535	28.6993	
53	0.441667	191.029	80.8869	43.5639	203.924	95.0131	22.9043	215.719	99.7398	3.17248	234.734	106.175	-7.07982	160.751	84.3376	-37.1083	138.268	104.608	-26.4953	150.319	94.3586	5.75946	141.047	73.0092	-37.3535	123.632	99.1949	-16.9972	138.889	83.5049	14.0989	117.244	65.5367	-27.7449	110.299	88.2446	-6.72531	132.854	73.4185	17.9116	106.373	50.9755	-13.6368	100.593	76.0204	1.54295	124.517	65.8191	23.4895	149.114	25.3022	17.0843	155.405	25.5498	51.5687	182.448	45.3018	29.5211	
54	0.45	191.048	79.439	45.0899	203.66	92.5321	25.067	221.929	95.5726	3.14378	236.495	103.199	-1.82203	163.527	87.7039	-38.0293	145.962	109.816	-22.1873	156.864	97.4964	7.14554	144.341	76.61	-37.7047	130.781	102.48	-16.7131	145.813	89.3643	13.4235	124.877	70.6226	-27.9222	114.569	91.443	-6.83691	132.446	77.7388	18.2889	109.737	58.8872	-15.9795	108.767	80.5272	2.51012	127.813	62.826	25.7661	151.743	29.5514	13.6343	153.91	26.1357	51.8889	184.067	44.6361	27.8834	
